# xmcd
#
# Track frame offsets:
#	150
#	11215
#	24109
#	34705
#	47081
#	59641
#	71639
#	84515
#	97570
#	109928
#	122030
#	135162
#	148788
#	161672
#	174055
#	186621
#	199812
#	213017
#	225648
#	235616
#	249107
#	260029
#	273176
#	287201
#	298332
#	311140
#
# Disc length: 4335 seconds
#
# Revision: 0
# Processed by: cddbd v1.5.2PL0 Copyright (c) Steve Scherf et al.
# Submitted via: EasyCDDAExtractor 16.0.6.1
#
DISCID=7310ed1a
DTITLE=Les Légendes Du Blues
DYEAR=1900
DGENRE=
TTITLE0=John Lee Hooker - Boom Boom
TTITLE1=Muddy Waters - Louisiana Blues
TTITLE2=B.B. King - Fine Looking Woman
TTITLE3=Menphis Slim - No Mail Blues
TTITLE4=Lightnin' Hopkins - Freight Train Blues
TTITLE5=Pee Wee Crayton - Texas Hop
TTITLE6=Craley Booker  - No Riding Blues
TTITLE7=T-Bone Walker - You're My Best Poker Hand
TTITLE8=Elmore James - Dust My Broom
TTITLE9=Howlin' Wolf - How Many More Years
TTITLE10=Jimmy Rogers - This World Is Not A Tangle
TTITLE11=Big Bill Broonzy - Mr Conductor Man
TTITLE12=Lonnie Johnson - Away Down In The Alley
TTITLE13=Big Joe Williams - Stock Of Dollars
TTITLE14=John Lee Hooker - I'm In The Mood
TTITLE15=Muddy Waters - Walking Blues
TTITLE16=Bessie Smith - The Yellow Dog Blues
TTITLE17=JB Lenoir - Korea Blues
TTITLE18=Little Water - Blue Baby
TTITLE19=John Lee Hooker - Alberta
TTITLE20=John Lee Hooker - Gonna Boogie
TTITLE21=Tampa Red - Let's Try It Again
TTITLE22=Leroy Car - Midnight Hour Blues
TTITLE23=Muddy Waters - Muddy Jumps One
TTITLE24=Robert Nighthawk - Six Three O
TTITLE25=Muddy Waters - Rolling Stone
EXTD=
EXTT0=
EXTT1=
EXTT2=
EXTT3=
EXTT4=
EXTT5=
EXTT6=
EXTT7=
EXTT8=
EXTT9=
EXTT10=
EXTT11=
EXTT12=
EXTT13=
EXTT14=
EXTT15=
EXTT16=
EXTT17=
EXTT18=
EXTT19=
EXTT20=
EXTT21=
EXTT22=
EXTT23=
EXTT24=
EXTT25=
PLAYORDER=
